<svg width="52" height="35" viewBox="0 0 52 35" fill="none" xmlns="http://www.w3.org/2000/svg">
<path d="M0.700155 35H27.1359C27.6563 35 27.9948 34.4524 27.7622 33.9869L27.2185 32.9L26.0808 30.8875L26.0221 30.7898C25.9599 30.6862 25.8719 30.6004 25.7667 30.5409C25.6615 30.4813 25.5427 30.45 25.4218 30.45H8.66407C8.1225 30.45 7.7859 29.8615 8.06089 29.3948L19.0052 10.8169C19.2751 10.359 19.9371 10.3568 20.2096 10.8132L34.4539 34.6589C34.516 34.7629 34.6041 34.849 34.7094 34.9088C34.8148 34.9686 34.9339 35 35.055 35H51.2988C51.8377 35 52.1747 34.4165 51.9051 33.95L32.4968 0.35C32.4354 0.243589 32.347 0.155225 32.2406 0.0937872C32.1341 0.0323495 32.0134 3.12145e-06 31.8905 0H28.4104C27.8761 0 27.5387 0.574175 27.799 1.0409L43.6169 29.4091C43.8771 29.8758 43.5397 30.45 43.0055 30.45H37.773C37.6506 30.45 37.5303 30.4179 37.4242 30.357C37.3181 30.296 37.2298 30.2082 37.1683 30.1025L20.332 1.22255C20.2704 1.11679 20.1821 1.02904 20.076 0.968049C19.9699 0.907062 19.8496 0.874977 19.7272 0.875H19.6569C19.5344 0.875004 19.414 0.907135 19.3078 0.968182C19.2017 1.02923 19.1134 1.11706 19.0517 1.2229L0.095046 33.7867C0.0327638 33.8936 -3.40181e-05 34.0151 2.6477e-08 34.1388V34.3C2.6477e-08 34.4857 0.0737656 34.6637 0.20507 34.795C0.336375 34.9263 0.514462 35 0.700155 35Z" fill="#FAFDFF"/>
</svg>
