<svg width="300" height="67" viewBox="0 0 300 67" fill="none" xmlns="http://www.w3.org/2000/svg">
<path d="M0 2C0 0.895429 0.895431 0 2 0H274C288.359 0 300 11.6406 300 26V65C300 66.1046 299.105 67 298 67H26C11.6406 67 0 55.3594 0 41V2Z" fill="#AFD3E2"/>
<path d="M0 0H53C67.3594 0 79 11.6406 79 26V67H26C11.6406 67 0 55.3594 0 41V0Z" fill="#19A7CE"/>
<path d="M13.7002 51H40.1359C40.6563 51 40.9948 50.4524 40.7622 49.9869L40.2185 48.9L39.0808 46.8875L39.0221 46.7898C38.9599 46.6862 38.8719 46.6004 38.7667 46.5409C38.6615 46.4813 38.5427 46.45 38.4218 46.45H21.6641C21.1225 46.45 20.7859 45.8615 21.0609 45.3948L32.0052 26.8169C32.2751 26.359 32.9371 26.3568 33.2096 26.8132L47.4539 50.6589C47.516 50.7629 47.6041 50.849 47.7094 50.9088C47.8148 50.9686 47.9339 51 48.055 51H64.2988C64.8377 51 65.1747 50.4165 64.9051 49.95L45.4968 16.35C45.4354 16.2436 45.347 16.1552 45.2406 16.0938C45.1341 16.0323 45.0134 16 44.8905 16H41.4104C40.8761 16 40.5387 16.5742 40.799 17.0409L56.6169 45.4091C56.8771 45.8758 56.5397 46.45 56.0055 46.45H50.773C50.6506 46.45 50.5303 46.4179 50.4242 46.357C50.3181 46.296 50.2298 46.2082 50.1683 46.1025L33.332 17.2225C33.2704 17.1168 33.1821 17.029 33.076 16.968C32.9699 16.9071 32.8496 16.875 32.7272 16.875H32.6569C32.5344 16.875 32.414 16.9071 32.3078 16.9682C32.2017 17.0292 32.1134 17.1171 32.0517 17.2229L13.095 49.7867C13.0328 49.8936 13 50.0151 13 50.1388V50.3C13 50.4856 13.0738 50.6637 13.2051 50.795C13.3364 50.9263 13.5145 51 13.7002 51Z" fill="#FAFDFF"/>
<path d="M104.716 49H101.023L111.705 19.9091H115.341L126.023 49H122.33L113.636 24.5114H113.409L104.716 49ZM106.08 37.6364H120.966V40.7614H106.08V37.6364ZM130.554 19.9091H134.759L144.645 44.0568H144.986L154.872 19.9091H159.077V49H155.781V26.8977H155.497L146.406 49H143.224L134.134 26.8977H133.849V49H130.554V19.9091ZM167.333 49H163.64L174.322 19.9091H177.958L188.64 49H184.947L176.254 24.5114H176.026L167.333 49ZM168.697 37.6364H183.583V40.7614H168.697V37.6364ZM216.239 19.9091V49H212.83L196.978 26.1591H196.694V49H193.171V19.9091H196.58L212.489 42.8068H212.773V19.9091H216.239ZM224.482 49H220.788L231.47 19.9091H235.107L245.788 49H242.095L233.402 24.5114H233.175L224.482 49ZM225.845 37.6364H240.732V40.7614H225.845V37.6364ZM250.32 49V19.9091H253.842V32.8636H269.354V19.9091H272.876V49H269.354V35.9886H253.842V49H250.32Z" fill="#19A7CE"/>
</svg>
