<svg width="933" height="998" viewBox="0 0 933 998" fill="none" xmlns="http://www.w3.org/2000/svg">
<ellipse cx="205.699" cy="664.412" rx="205.699" ry="333.588" fill="white"/>
<ellipse cx="205.699" cy="664.412" rx="162.514" ry="263.553" fill="#AFD3E2"/>
<ellipse cx="205.7" cy="664.411" rx="124.442" ry="201.812" fill="#19A7CE"/>
<path d="M587.835 129.012C510.783 140.807 458.373 47.9187 441.799 0L932.751 3.2253V664.872H877.916C708.129 629.855 736.711 490.245 772.225 424.818C792.966 378.896 830.469 268.253 814.559 193.057C794.671 99.0628 684.15 114.268 587.835 129.012Z" fill="white"/>
<path d="M864.889 515.564H655.717V394.521H864.889V515.564ZM656.993 514.288H863.612V395.797H656.993V514.288Z" fill="#E0E0E0"/>
<path d="M821.737 459.063H683.731V463.109H821.737V459.063Z" fill="#F0F0F0"/>
<path d="M831.245 474.149H683.731V478.565H831.245V474.149Z" fill="#F0F0F0"/>
<path d="M831.245 489.413H683.731V493.829H831.245V489.413Z" fill="#F0F0F0"/>
<path d="M731.963 437.149H683.731V447.653H731.963V437.149Z" fill="#F0F0F0"/>
<path d="M864.251 395.159H656.393V414.431H864.251V395.159Z" fill="#E0E0E0"/>
<path d="M848.259 411.546C847.991 411.291 850.671 408.062 854.232 404.335C857.793 400.608 860.92 397.788 861.175 398.03C861.43 398.273 858.763 401.514 855.202 405.254C851.641 408.994 848.514 411.801 848.259 411.546Z" fill="white"/>
<path d="M861.201 411.546C860.945 411.801 857.831 408.994 854.257 405.254C850.684 401.515 848.016 398.286 848.284 398.03C848.552 397.775 851.654 400.583 855.227 404.335C858.801 408.087 861.443 411.291 861.201 411.546Z" fill="white"/>
<path d="M607.499 155.458H399.641V275.238H607.499V155.458Z" fill="#E6E6E6"/>
<path d="M564.998 219.375H426.992V223.421H564.998V219.375Z" fill="#F0F0F0"/>
<path d="M574.506 234.46H426.992V238.876H574.506V234.46Z" fill="#F0F0F0"/>
<path d="M574.506 249.725H426.992V254.141H574.506V249.725Z" fill="#F0F0F0"/>
<path d="M475.223 197.461H426.992V207.965H475.223V197.461Z" fill="#F0F0F0"/>
<path d="M607.499 155.458H399.641V174.73H607.499V155.458Z" fill="#E0E0E0"/>
<path d="M590.805 171.756C590.537 171.514 593.217 168.272 596.778 164.545C600.339 160.818 603.465 157.998 603.721 158.253C603.976 158.508 601.308 161.737 597.748 165.464C594.187 169.191 591.06 171.986 590.805 171.756Z" fill="white"/>
<path d="M603.721 171.756C603.466 172.011 600.351 169.204 596.778 165.464C593.204 161.724 590.537 158.508 590.805 158.253C591.073 157.998 594.174 160.806 597.748 164.545C601.321 168.285 603.989 171.514 603.721 171.756Z" fill="white"/>
<path d="M528.777 377.967H319.643V256.911H528.777V377.967ZM320.919 376.691H527.5V258.187H320.919V376.691Z" fill="#E0E0E0"/>
<path d="M485.638 321.466H347.632V325.512H485.638V321.466Z" fill="#F0F0F0"/>
<path d="M495.146 336.551H347.632V340.967H495.146V336.551Z" fill="#F0F0F0"/>
<path d="M495.146 351.816H347.632V356.232H495.146V351.816Z" fill="#F0F0F0"/>
<path d="M395.863 299.552H347.632V310.056H395.863V299.552Z" fill="#F0F0F0"/>
<path d="M528.138 257.549H320.281V276.821H528.138V257.549Z" fill="#E0E0E0"/>
<path d="M770.137 405.701H524.705V625.428H770.137V405.701Z" fill="#E6E6E6"/>
<path d="M537.047 336.488H344.786V536.241H537.047V336.488Z" fill="#F0F0F0"/>
<path d="M537.047 336.488H344.786V358.249H537.047V336.488Z" fill="#E0E0E0"/>
<path d="M360.663 347.144C360.628 347.934 360.362 348.695 359.898 349.334C359.435 349.974 358.793 350.463 358.054 350.741C357.314 351.019 356.51 351.074 355.74 350.898C354.969 350.723 354.268 350.326 353.721 349.755C353.175 349.185 352.808 348.466 352.666 347.689C352.525 346.912 352.614 346.11 352.924 345.384C353.234 344.657 353.75 344.038 354.409 343.602C355.068 343.166 355.84 342.933 356.63 342.933C357.723 342.959 358.76 343.417 359.516 344.207C360.271 344.996 360.684 346.052 360.663 347.144V347.144Z" fill="white"/>
<path d="M377.038 347.144C377.006 347.937 376.741 348.703 376.277 349.346C375.812 349.99 375.169 350.482 374.426 350.763C373.684 351.044 372.876 351.1 372.102 350.924C371.328 350.749 370.623 350.35 370.074 349.777C369.525 349.204 369.157 348.482 369.015 347.701C368.874 346.92 368.965 346.115 369.277 345.385C369.589 344.656 370.109 344.035 370.772 343.598C371.435 343.162 372.212 342.931 373.005 342.933C374.098 342.959 375.135 343.417 375.891 344.207C376.646 344.996 377.059 346.052 377.038 347.144V347.144Z" fill="white"/>
<path d="M393.413 347.144C393.38 347.937 393.115 348.703 392.651 349.346C392.186 349.99 391.543 350.482 390.801 350.763C390.058 351.044 389.25 351.1 388.476 350.924C387.702 350.749 386.997 350.35 386.448 349.777C385.899 349.204 385.531 348.482 385.389 347.701C385.248 346.92 385.339 346.115 385.651 345.385C385.964 344.656 386.484 344.035 387.147 343.598C387.81 343.162 388.586 342.931 389.38 342.933C390.472 342.959 391.509 343.417 392.265 344.207C393.021 344.996 393.433 346.052 393.413 347.144V347.144Z" fill="white"/>
<path d="M837.436 199.146H592.004V443.76H837.436V199.146Z" fill="#F0F0F0"/>
<path d="M837.436 199.146H592.004V227.798H837.436V199.146Z" fill="#E0E0E0"/>
<path d="M612.91 213.185C612.865 214.226 612.515 215.232 611.903 216.076C611.292 216.921 610.446 217.567 609.47 217.935C608.495 218.303 607.433 218.376 606.416 218.145C605.399 217.915 604.472 217.391 603.751 216.638C603.029 215.885 602.545 214.937 602.357 213.912C602.17 212.886 602.288 211.828 602.696 210.869C603.105 209.91 603.787 209.092 604.656 208.516C605.526 207.941 606.545 207.634 607.588 207.633C609.029 207.666 610.398 208.269 611.395 209.31C612.393 210.35 612.937 211.744 612.91 213.185V213.185Z" fill="white"/>
<path d="M632.909 209.432C633.617 210.201 634.083 211.16 634.249 212.192C634.415 213.223 634.274 214.28 633.843 215.232C633.412 216.183 632.711 216.987 631.827 217.543C630.943 218.099 629.914 218.383 628.87 218.358C627.826 218.334 626.812 218.003 625.954 217.406C625.097 216.81 624.434 215.974 624.048 215.003C623.663 214.032 623.571 212.97 623.785 211.947C623.999 210.925 624.509 209.988 625.252 209.254C626.292 208.264 627.682 207.727 629.117 207.76C630.553 207.794 631.917 208.395 632.909 209.432V209.432Z" fill="white"/>
<path d="M656.023 213.185C655.978 214.226 655.628 215.232 655.017 216.076C654.405 216.921 653.559 217.567 652.584 217.935C651.608 218.303 650.546 218.376 649.529 218.145C648.512 217.915 647.585 217.391 646.864 216.638C646.142 215.885 645.658 214.937 645.47 213.912C645.283 212.886 645.401 211.828 645.81 210.869C646.218 209.91 646.9 209.092 647.769 208.516C648.639 207.941 649.658 207.634 650.701 207.633C652.142 207.666 653.511 208.269 654.508 209.31C655.506 210.35 656.051 211.744 656.023 213.185V213.185Z" fill="white"/>
<path d="M784.419 690.327C784.419 690.506 695.793 690.659 586.504 690.659C477.215 690.659 388.551 690.506 388.551 690.327C388.551 690.148 477.164 689.995 586.504 689.995C695.844 689.995 784.419 690.161 784.419 690.327Z" fill="#263238"/>
<path d="M698.065 534.083C678.346 520.312 673.879 494.748 674.658 471.762C674.785 467.933 674.364 463.874 676.189 460.518C678.014 457.161 682.277 454.851 685.71 456.459C688.557 457.799 689.795 461.118 691.39 463.862C693.519 467.516 696.638 470.494 700.388 472.451C702.825 473.727 705.85 474.493 708.263 473.166C711.581 471.341 711.964 466.784 711.938 462.956C711.938 455.834 711.896 448.721 711.811 441.616C711.581 437.801 711.969 433.974 712.959 430.282C714.146 426.658 716.788 423.301 720.4 422.28C724.012 421.259 728.517 423.365 729.334 427.092C729.475 428.67 729.513 430.256 729.449 431.839C729.551 433.435 730.291 435.183 731.785 435.668C733.278 436.153 734.835 435.043 735.984 433.92C739.915 430.091 742.595 425.101 745.084 420.174C747.572 415.248 750.01 410.181 753.584 405.982C757.157 401.783 762.097 398.452 767.623 398.133C773.149 397.813 778.905 401.208 780.284 406.569C781.662 411.929 778.535 417.405 775.179 421.757C770.113 428.217 764.143 433.913 757.451 438.668C756.145 439.381 755.102 440.495 754.477 441.846C753.648 444.398 756.06 446.951 758.574 447.755C761.42 448.699 764.509 448.406 767.508 448.763C770.507 449.12 773.698 450.422 774.834 453.23C776.391 457.136 773.124 461.22 769.92 463.9C763.488 469.26 756.184 473.478 748.325 476.369C745.518 477.39 742.569 478.297 740.297 480.262C738.026 482.228 736.673 485.661 738.038 488.354C739.404 491.047 742.914 491.902 745.862 491.353C748.81 490.804 751.427 489.222 754.235 488.162C759.48 486.184 766.245 486.541 769.55 491.072C770.574 492.633 771.222 494.41 771.444 496.264C771.665 498.117 771.454 499.997 770.826 501.755C769.549 505.254 767.583 508.461 765.045 511.187C756.686 521.174 745.824 528.763 733.571 533.177C721.408 537.389 710.139 538.538 698.052 534.109" fill="#146C94"/>
<path d="M774.668 401.285C774.668 401.285 774.553 401.413 774.298 401.643L773.162 402.651C772.166 403.544 770.699 404.846 768.848 406.569C763.601 411.441 758.729 416.701 754.273 422.306C751.427 425.841 748.478 429.849 745.339 434.201C742.199 438.553 738.957 443.25 735.741 448.24C732.312 453.502 729.172 458.947 726.335 464.551C724.854 467.474 723.552 470.524 722.212 473.638L718.256 483.147C713.04 495.123 708.498 507.382 704.65 519.866C701.551 530.079 699.414 540.561 698.269 551.173C697.527 558.335 697.407 565.547 697.912 572.73C698.116 575.282 698.307 577.235 698.486 578.562C698.562 579.201 698.614 579.711 698.665 580.081V580.604C698.61 580.438 698.571 580.267 698.55 580.094C698.486 579.724 698.409 579.226 698.307 578.588C698.077 577.312 697.835 575.295 697.605 572.742C696.989 565.547 697.032 558.31 697.733 551.122C698.807 540.465 700.897 529.934 703.974 519.674C707.79 507.156 712.319 494.866 717.541 482.866L721.6 473.396C722.94 470.294 724.254 467.218 725.748 464.283C728.605 458.663 731.77 453.204 735.23 447.934C738.498 442.829 741.791 438.208 744.892 433.894C747.993 429.581 750.993 425.548 753.826 422.025C758.327 416.435 763.265 411.212 768.593 406.403C770.482 404.706 771.988 403.429 773.009 402.574L774.196 401.617C774.341 401.49 774.499 401.379 774.668 401.285V401.285Z" fill="#263238"/>
<path d="M725.914 464.257C725.734 463.731 725.61 463.188 725.544 462.636C725.34 461.577 725.11 460.084 724.842 458.144C724.293 454.315 723.732 449.069 723.132 443.262C722.532 437.455 721.855 432.197 721.294 428.406C721 426.517 720.745 424.998 720.566 423.939C720.427 423.397 720.354 422.84 720.349 422.28C720.569 422.791 720.728 423.327 720.822 423.875C721.102 424.922 721.421 426.428 721.779 428.329C722.506 432.158 723.221 437.366 723.821 443.185C724.421 449.005 724.931 454.111 725.327 458.08C725.518 459.867 725.684 461.385 725.812 462.598C725.911 463.145 725.945 463.702 725.914 464.257V464.257Z" fill="#263238"/>
<path d="M775.026 455.094C774.405 455.229 773.772 455.306 773.137 455.323C771.86 455.438 770.048 455.592 767.802 455.847C763.309 456.332 757.132 457.225 750.355 458.501C743.578 459.778 737.49 461.22 733.112 462.33C730.93 462.892 729.168 463.402 728.007 463.747C727.387 463.967 726.745 464.121 726.093 464.206C726.682 463.91 727.297 463.666 727.93 463.479C729.13 463.058 730.866 462.471 733.036 461.845C737.388 460.569 743.476 459.05 750.278 457.748C756.041 456.647 761.855 455.837 767.7 455.323C769.959 455.132 771.784 455.055 773.06 455.03C773.716 454.985 774.374 455.007 775.026 455.094Z" fill="#263238"/>
<path d="M704.6 518.781C704.464 518.596 704.352 518.394 704.268 518.181L703.426 516.407C702.698 514.863 701.715 512.578 700.541 509.783C698.167 504.167 695.142 496.305 691.926 487.575C688.71 478.846 685.749 470.984 683.503 465.304C682.405 462.547 681.499 460.288 680.822 458.604L680.108 456.778C680.009 456.568 679.94 456.345 679.904 456.115C680.04 456.3 680.151 456.501 680.235 456.715L681.078 458.489C681.792 460.033 682.788 462.318 683.962 465.113C686.336 470.728 689.361 478.59 692.577 487.32C695.793 496.05 698.754 503.912 701.001 509.591C702.098 512.348 703.004 514.607 703.668 516.292C703.962 517.019 704.204 517.568 704.396 518.117C704.495 518.328 704.563 518.551 704.6 518.781V518.781Z" fill="#263238"/>
<path d="M769.793 497.76C769.588 497.878 769.37 497.968 769.142 498.028L767.253 498.666L760.272 500.925C754.375 502.84 746.232 505.571 737.298 508.583C728.364 511.595 720.183 514.275 714.248 516.062C711.287 516.968 708.875 517.658 707.203 518.117L705.276 518.615C705.052 518.686 704.821 518.733 704.587 518.755C704.791 518.638 705.01 518.548 705.238 518.487L707.127 517.849L714.108 515.59C720.005 513.676 728.147 510.944 737.081 507.932C746.015 504.92 754.184 502.24 760.118 500.453C763.092 499.547 765.492 498.858 767.176 498.398L769.104 497.901C769.328 497.829 769.559 497.782 769.793 497.76V497.76Z" fill="#263238"/>
<path d="M743.194 188.169L736.621 190.518L733.8 181.928C728.619 166.089 712.103 157.679 696.928 163.026C681.753 168.374 673.674 185.744 678.856 201.583L681.677 210.173L675.078 212.534C672.562 213.51 670.519 215.418 669.373 217.861C668.227 220.305 668.067 223.096 668.926 225.654L687.216 281.543C687.595 282.809 688.226 283.987 689.069 285.005C689.913 286.023 690.953 286.861 692.126 287.469C693.3 288.078 694.585 288.444 695.903 288.546C697.221 288.649 698.546 288.485 699.8 288.065L767.916 263.7C770.465 262.726 772.537 260.801 773.697 258.33C774.856 255.86 775.012 253.036 774.131 250.452L755.829 194.564C755.44 193.301 754.8 192.129 753.948 191.119C753.096 190.109 752.049 189.28 750.869 188.684C749.69 188.087 748.403 187.734 747.084 187.645C745.765 187.557 744.442 187.735 743.194 188.169V188.169ZM691.274 197.103C689.877 192.985 690.128 188.486 691.974 184.548C693.82 180.611 697.119 177.54 701.178 175.981C703.183 175.295 705.305 175.02 707.418 175.172C709.531 175.324 711.592 175.9 713.478 176.867C715.363 177.833 717.035 179.168 718.393 180.795C719.751 182.421 720.768 184.304 721.382 186.331L724.19 194.921L694.082 205.693L691.274 197.103ZM729.563 246.7L734.234 260.969C734.32 261.255 734.293 261.563 734.157 261.83C734.022 262.096 733.789 262.3 733.507 262.399L726.96 264.734C726.699 264.806 726.421 264.775 726.183 264.647C725.945 264.518 725.766 264.302 725.683 264.045L720.974 249.84C718.377 249.698 715.885 248.767 713.832 247.17C711.78 245.574 710.263 243.388 709.487 240.906C708.377 237.624 708.58 234.041 710.052 230.905C711.525 227.77 714.153 225.325 717.387 224.084C718.984 223.539 720.674 223.32 722.358 223.442C724.041 223.563 725.682 224.022 727.184 224.792C728.686 225.561 730.017 226.625 731.099 227.92C732.181 229.215 732.991 230.714 733.481 232.329C734.303 234.85 734.37 237.557 733.677 240.116C732.983 242.675 731.558 244.977 729.576 246.738L729.563 246.7Z" fill="#146C94"/>
<path d="M736.328 190.364C736.328 190.543 724.139 195.125 708.977 200.575C693.814 206.025 681.447 210.402 681.383 210.275C681.319 210.147 693.572 205.527 708.747 200.064C723.922 194.602 736.264 190.198 736.328 190.364Z" fill="#263238"/>
<path d="M750.801 192.713C750.857 192.824 750.904 192.939 750.941 193.057C751.043 193.313 751.158 193.645 751.311 194.053C751.643 194.985 752.102 196.274 752.677 197.882L757.578 212.151C759.62 218.2 762.058 225.373 764.763 233.337C766.04 237.332 767.546 241.493 768.95 245.871C769.701 248.126 770.026 250.503 769.907 252.877C769.799 254.112 769.447 255.314 768.873 256.413C768.26 257.508 767.441 258.474 766.461 259.259C764.489 260.698 762.3 261.814 759.977 262.564L753.404 264.926L740.96 269.38L719.889 276.884L705.658 281.888L701.829 283.164L700.808 283.496C700.699 283.544 700.583 283.574 700.464 283.585C700.464 283.585 700.566 283.585 700.783 283.432L701.778 283.036L705.607 281.594L719.761 276.387L740.795 268.729L753.213 264.236L759.786 261.862C762.043 261.143 764.168 260.061 766.078 258.659C766.99 257.931 767.752 257.034 768.324 256.017C768.865 255.001 769.19 253.884 769.281 252.737C769.399 250.449 769.087 248.159 768.362 245.985C766.984 241.646 765.529 237.447 764.215 233.452C761.56 225.475 759.109 218.277 757.169 212.227C755.229 206.178 753.596 201.315 752.473 197.895C751.937 196.223 751.528 194.921 751.196 193.976L750.89 192.955C750.851 192.878 750.822 192.797 750.801 192.713V192.713Z" fill="#263238"/>
<path d="M714.86 175.113C714.86 175.113 714.183 174.781 712.933 174.27C711.15 173.585 709.264 173.206 707.355 173.147C704.526 173.05 701.71 173.582 699.11 174.704C695.95 176.102 693.247 178.362 691.312 181.226C689.365 184.082 688.32 187.457 688.313 190.913C688.34 193.746 688.769 196.561 689.589 199.273C690.253 201.596 690.942 203.446 691.402 204.735C691.673 205.39 691.895 206.064 692.065 206.752C691.703 206.14 691.399 205.495 691.159 204.825C690.636 203.549 689.883 201.736 689.143 199.401C688.234 196.66 687.739 193.8 687.675 190.913C687.641 187.326 688.71 183.815 690.738 180.856C692.74 177.888 695.553 175.557 698.842 174.143C701.523 173.014 704.427 172.516 707.33 172.688C709.28 172.787 711.196 173.241 712.984 174.028C713.462 174.248 713.922 174.504 714.362 174.794C714.544 174.873 714.712 174.981 714.86 175.113V175.113Z" fill="#263238"/>
<path d="M715.448 225.054C715.651 224.931 715.865 224.824 716.086 224.735C716.725 224.447 717.386 224.212 718.064 224.033C719.14 223.716 720.249 223.527 721.37 223.472C722.893 223.39 724.418 223.62 725.849 224.148C729.117 225.297 732.116 228.628 733.596 233.082C734.306 235.473 734.306 238.018 733.596 240.408C732.809 243.003 731.398 245.365 729.487 247.287L729.563 246.943C731.261 251.601 733.111 256.655 735.026 261.926L735.141 262.246L734.822 262.36L731.899 263.33L725.517 265.462L725.198 265.564L725.096 265.245C723.348 259.961 721.433 255.034 719.991 250.197L720.272 250.414C717.777 250.207 715.398 249.271 713.431 247.721C711.651 246.351 710.192 244.609 709.155 242.616C708.22 240.849 707.754 238.872 707.803 236.873C707.862 234.83 708.372 232.826 709.296 231.003C710.221 229.18 711.537 227.585 713.15 226.331C713.814 225.792 714.56 225.361 715.358 225.054C714.637 225.482 713.939 225.946 713.265 226.445C711.493 227.945 710.135 229.874 709.321 232.048C708.623 233.688 708.296 235.462 708.365 237.243C708.433 239.023 708.895 240.767 709.717 242.348C710.737 244.265 712.161 245.937 713.89 247.249C715.767 248.722 718.035 249.609 720.412 249.802H720.629L720.693 249.993C722.097 254.741 724.024 259.706 725.798 265.015L725.377 264.811L731.759 262.679L734.669 261.697L734.464 262.131C732.563 256.86 730.725 251.793 729.04 247.134V246.943L729.193 246.79C731.049 244.946 732.432 242.683 733.226 240.191C733.903 237.905 733.903 235.471 733.226 233.184C731.835 228.896 728.964 225.641 725.849 224.493C724.471 223.961 722.999 223.714 721.523 223.765C720.42 223.791 719.324 223.94 718.255 224.212C716.354 224.684 715.46 225.118 715.448 225.054Z" fill="#263238"/>
<path d="M675.997 593.571L548.508 592.984C541.146 592.944 534.101 589.983 528.92 584.752C523.739 579.52 520.846 572.447 520.876 565.084L522.229 245.488C522.244 241.84 522.978 238.231 524.389 234.867C525.799 231.504 527.859 228.451 530.45 225.883C533.041 223.316 536.113 221.284 539.489 219.905C542.866 218.525 546.482 217.825 550.129 217.843L677.605 218.43C684.968 218.467 692.014 221.425 697.198 226.654C702.381 231.883 705.277 238.955 705.25 246.317L703.897 565.901C703.882 569.55 703.148 573.16 701.738 576.525C700.328 579.891 698.269 582.945 695.678 585.515C693.087 588.084 690.016 590.118 686.639 591.5C683.262 592.883 679.646 593.586 675.997 593.571V593.571Z" fill="#455A64"/>
<path d="M677.414 229.419H652.705C651.898 229.434 651.103 229.608 650.364 229.93C649.625 230.253 648.956 230.717 648.397 231.298C647.838 231.879 647.398 232.564 647.103 233.315C646.809 234.065 646.665 234.867 646.68 235.673V240.153C646.696 240.958 646.552 241.759 646.257 242.509C645.962 243.259 645.523 243.943 644.963 244.523C644.404 245.103 643.735 245.566 642.996 245.887C642.257 246.208 641.462 246.381 640.656 246.394L592.489 246.177C590.86 246.133 589.314 245.445 588.192 244.263C587.069 243.081 586.462 241.502 586.503 239.872V235.392C586.544 233.765 585.939 232.187 584.819 231.006C583.7 229.824 582.157 229.134 580.53 229.087H571.839L550.205 228.985C545.06 228.955 540.112 230.964 536.445 234.574C532.778 238.183 530.69 243.099 530.64 248.244L529.363 560.196C529.352 562.749 529.843 565.279 530.809 567.642C531.775 570.004 533.197 572.154 534.994 573.967C536.79 575.78 538.926 577.222 541.28 578.21C543.634 579.197 546.159 579.712 548.712 579.724L675.933 580.311C678.487 580.322 681.019 579.831 683.383 578.864C685.748 577.898 687.899 576.475 689.713 574.677C691.528 572.879 692.97 570.741 693.958 568.386C694.947 566.031 695.461 563.504 695.473 560.949L696.749 248.997C696.78 243.838 694.76 238.877 691.135 235.205C687.509 231.534 682.573 229.453 677.414 229.419V229.419Z" fill="white"/>
<path d="M660.299 538.691L565.7 538.282C564.717 538.282 563.926 537.21 563.938 535.908L564.04 511.161C564.04 509.885 564.845 508.787 565.827 508.787L660.426 509.221C660.971 509.315 661.458 509.616 661.786 510.061C662.114 510.505 662.258 511.06 662.188 511.608L662.098 536.33C662.098 537.644 661.281 538.703 660.299 538.691Z" fill="#146C94"/>
<path d="M596.42 520.479C596.376 520.106 596.197 519.816 595.882 519.609C595.568 519.403 595.182 519.3 594.725 519.3C594.391 519.3 594.098 519.354 593.848 519.462C593.6 519.57 593.406 519.719 593.266 519.908C593.128 520.097 593.059 520.312 593.059 520.553C593.059 520.754 593.107 520.927 593.203 521.072C593.301 521.215 593.426 521.334 593.579 521.43C593.731 521.523 593.891 521.601 594.058 521.662C594.225 521.721 594.379 521.769 594.519 521.806L595.285 522.012C595.482 522.064 595.7 522.135 595.941 522.226C596.184 522.317 596.417 522.441 596.638 522.598C596.861 522.753 597.045 522.952 597.19 523.195C597.335 523.438 597.408 523.737 597.408 524.091C597.408 524.498 597.301 524.867 597.087 525.196C596.876 525.525 596.566 525.787 596.159 525.981C595.753 526.175 595.261 526.272 594.681 526.272C594.14 526.272 593.672 526.185 593.277 526.011C592.884 525.836 592.574 525.593 592.348 525.281C592.124 524.969 591.998 524.607 591.968 524.194H592.912C592.936 524.479 593.032 524.715 593.199 524.901C593.369 525.086 593.582 525.223 593.84 525.314C594.101 525.403 594.381 525.447 594.681 525.447C595.03 525.447 595.343 525.39 595.62 525.277C595.898 525.162 596.118 525.002 596.28 524.798C596.442 524.592 596.523 524.351 596.523 524.076C596.523 523.825 596.453 523.621 596.313 523.464C596.173 523.307 595.989 523.179 595.761 523.081C595.532 522.983 595.285 522.897 595.02 522.823L594.091 522.557C593.501 522.388 593.035 522.146 592.691 521.831C592.347 521.517 592.175 521.105 592.175 520.597C592.175 520.174 592.289 519.806 592.517 519.491C592.748 519.174 593.058 518.929 593.446 518.754C593.837 518.577 594.273 518.489 594.754 518.489C595.241 518.489 595.673 518.576 596.052 518.751C596.43 518.923 596.73 519.158 596.951 519.458C597.174 519.758 597.292 520.098 597.305 520.479H596.42ZM603.864 518.592H604.778V523.589C604.778 524.105 604.656 524.566 604.413 524.971C604.172 525.374 603.832 525.692 603.392 525.926C602.952 526.157 602.436 526.272 601.844 526.272C601.252 526.272 600.736 526.157 600.296 525.926C599.856 525.692 599.515 525.374 599.272 524.971C599.031 524.566 598.911 524.105 598.911 523.589V518.592H599.825V523.516C599.825 523.884 599.906 524.212 600.068 524.5C600.23 524.785 600.461 525.009 600.761 525.174C601.063 525.336 601.424 525.417 601.844 525.417C602.264 525.417 602.625 525.336 602.928 525.174C603.23 525.009 603.461 524.785 603.62 524.5C603.783 524.212 603.864 523.884 603.864 523.516V518.592ZM606.603 526.14V518.592H609.241C609.767 518.592 610.201 518.683 610.542 518.865C610.884 519.044 611.138 519.286 611.305 519.591C611.472 519.893 611.556 520.228 611.556 520.597C611.556 520.921 611.498 521.189 611.383 521.4C611.27 521.612 611.12 521.779 610.933 521.902C610.749 522.024 610.549 522.115 610.332 522.174V522.248C610.563 522.263 610.795 522.344 611.029 522.491C611.262 522.639 611.458 522.85 611.615 523.125C611.772 523.4 611.851 523.737 611.851 524.135C611.851 524.513 611.765 524.853 611.593 525.156C611.421 525.458 611.149 525.697 610.778 525.874C610.407 526.051 609.925 526.14 609.33 526.14H606.603ZM607.517 525.329H609.33C609.927 525.329 610.351 525.213 610.601 524.982C610.854 524.749 610.981 524.467 610.981 524.135C610.981 523.879 610.916 523.643 610.786 523.427C610.655 523.209 610.47 523.034 610.229 522.904C609.988 522.771 609.703 522.705 609.374 522.705H607.517V525.329ZM607.517 521.909H609.212C609.487 521.909 609.735 521.855 609.956 521.747C610.18 521.639 610.357 521.486 610.487 521.29C610.62 521.093 610.686 520.862 610.686 520.597C610.686 520.265 610.571 519.984 610.34 519.753C610.109 519.52 609.743 519.403 609.241 519.403H607.517V521.909ZM613.352 518.592H614.443L617.008 524.857H617.097L619.662 518.592H620.753V526.14H619.898V520.405H619.824L617.465 526.14H616.64L614.281 520.405H614.207V526.14H613.352V518.592ZM623.499 518.592V526.14H622.585V518.592H623.499ZM624.919 519.403V518.592H630.58V519.403H628.206V526.14H627.292V519.403H624.919Z" fill="#E8E8E3"/>
<path d="M584.569 321.121L551.743 320.972L551.715 326.996L584.541 327.145L584.569 321.121Z" fill="#146C94"/>
<path opacity="0.1" d="M584.569 321.121L551.743 320.972L551.715 326.996L584.541 327.145L584.569 321.121Z" fill="black"/>
<path d="M680.796 358.108C681.053 358.082 681.307 358.021 681.549 357.929C681.902 357.791 682.209 357.556 682.435 357.251C682.661 356.946 682.796 356.584 682.825 356.206C682.825 354.177 682.825 351.216 682.825 347.412C682.825 345.511 682.825 343.379 682.825 341.031C682.825 340.456 682.825 339.857 682.825 339.257C682.908 338.675 682.781 338.082 682.468 337.585C682.292 337.346 682.063 337.152 681.8 337.017C681.536 336.882 681.245 336.81 680.949 336.806H678.958H660.515L553.766 336.411C553.493 336.406 553.223 336.467 552.978 336.59C552.734 336.712 552.522 336.891 552.362 337.113C552.054 337.612 551.936 338.205 552.03 338.785C552.03 340.061 552.03 341.337 552.03 342.613C552.03 345.166 552.03 347.719 552.03 350.271C552.03 351.547 552.03 352.824 552.03 354.1C551.977 354.694 551.977 355.292 552.03 355.887C552.097 356.142 552.222 356.378 552.395 356.577C552.567 356.776 552.783 356.933 553.026 357.036C553.277 357.136 553.547 357.183 553.817 357.176H560.313L588.66 357.329L636.649 357.623L669.003 357.878L677.796 357.98H680.081C680.604 357.98 680.859 357.98 680.859 357.98H680.081H677.796H669.003H636.649L588.66 357.827L560.313 357.712H553.817C553.46 357.726 553.103 357.666 552.771 357.533C552.435 357.39 552.136 357.172 551.897 356.895C551.658 356.619 551.485 356.291 551.392 355.938C551.318 355.603 551.293 355.259 551.316 354.917V353.972C551.316 352.696 551.316 351.42 551.316 350.144C551.316 347.591 551.316 345.038 551.316 342.486C551.316 341.209 551.316 339.933 551.316 338.657C551.291 338.317 551.291 337.976 551.316 337.636C551.363 337.26 551.509 336.904 551.737 336.602C551.957 336.294 552.248 336.044 552.586 335.873C552.924 335.701 553.298 335.615 553.677 335.619L660.426 336.206L678.868 336.334H680.859C681.21 336.334 681.556 336.419 681.867 336.581C682.178 336.744 682.445 336.978 682.646 337.266C683.006 337.821 683.151 338.488 683.055 339.142C683.055 339.742 683.055 340.342 683.055 340.916C683.055 343.239 683.055 345.37 683.055 347.297C683.055 351.126 682.965 354.062 682.94 356.104C682.909 356.496 682.766 356.872 682.528 357.186C682.291 357.501 681.969 357.741 681.6 357.878C681.358 358.028 681.08 358.107 680.796 358.108V358.108Z" fill="#E0E0E0"/>
<path d="M621.639 342.818H561.603V348.446H621.639V342.818Z" fill="#146C94"/>
<path opacity="0.2" d="M621.639 342.818H561.603V348.446H621.639V342.818Z" fill="white"/>
<path d="M584.344 376.077L551.519 375.928L551.491 381.952L584.317 382.101L584.344 376.077Z" fill="#146C94"/>
<path opacity="0.1" d="M584.344 376.077L551.519 375.928L551.491 381.952L584.317 382.101L584.344 376.077Z" fill="black"/>
<path d="M679.966 413.065C680.224 413.034 680.48 412.987 680.732 412.925C681.088 412.811 681.416 412.623 681.694 412.372C681.971 412.121 682.192 411.813 682.34 411.47C682.541 410.955 682.62 410.4 682.57 409.849C682.57 409.236 682.57 408.573 682.57 407.832C682.57 406.352 682.57 404.667 682.57 402.727V394.623C682.631 394.036 682.501 393.445 682.2 392.938C681.885 392.418 681.39 392.032 680.808 391.853C680.173 391.74 679.525 391.705 678.881 391.751H660.515L554.136 391.355C553.564 391.357 553.012 391.566 552.582 391.944C552.153 392.322 551.875 392.843 551.801 393.41C551.801 394.623 551.801 395.963 551.801 397.239C551.801 399.792 551.801 402.344 551.801 404.897C551.801 406.173 551.801 407.45 551.801 408.726C551.753 409.322 551.779 409.922 551.877 410.513C552.037 411.03 552.365 411.479 552.809 411.789C553.28 412.088 553.834 412.231 554.392 412.197H556.166H559.854L588.098 412.338L635.921 412.631L668.16 412.887L676.928 412.989H679.213H679.979H679.213H676.928H668.16H635.921L588.073 412.938L559.829 412.835H554.277C553.586 412.876 552.901 412.693 552.324 412.312C551.743 411.91 551.319 411.319 551.124 410.64C551.01 409.992 550.976 409.332 551.022 408.675C551.022 407.398 551.022 406.122 551.022 404.846C551.022 402.293 551.022 399.741 551.022 397.188C551.022 395.912 551.022 394.635 551.022 393.359C551.115 392.629 551.471 391.959 552.023 391.472C552.575 390.986 553.286 390.718 554.021 390.717L660.401 391.304L678.766 391.445C679.45 391.403 680.137 391.45 680.808 391.585C681.472 391.802 682.031 392.257 682.378 392.861C682.708 393.424 682.851 394.076 682.787 394.725C682.787 395.325 682.787 395.912 682.787 396.499C682.787 398.809 682.787 400.928 682.787 402.88C682.787 404.833 682.787 406.48 682.787 407.986C682.787 408.713 682.787 409.389 682.787 410.015C682.833 410.586 682.741 411.159 682.519 411.687C682.353 412.039 682.113 412.351 681.816 412.602C681.519 412.853 681.171 413.037 680.796 413.142C680.517 413.165 680.236 413.139 679.966 413.065V413.065Z" fill="#E0E0E0"/>
<path d="M584.097 433.419L551.271 433.27L551.244 439.294L584.07 439.443L584.097 433.419Z" fill="#146C94"/>
<path opacity="0.1" d="M584.097 433.419L551.271 433.27L551.244 439.294L584.07 439.443L584.097 433.419Z" fill="black"/>
<path d="M679.711 470.383C679.969 470.353 680.225 470.306 680.477 470.243C680.832 470.13 681.159 469.943 681.436 469.695C681.713 469.446 681.934 469.141 682.085 468.801C682.285 468.285 682.364 467.731 682.315 467.18C682.315 466.555 682.315 465.904 682.315 465.151C682.315 463.683 682.315 461.985 682.315 460.045V451.941C682.376 451.354 682.246 450.763 681.945 450.256C681.622 449.746 681.129 449.366 680.553 449.184C679.918 449.066 679.271 449.028 678.626 449.069H660.26L553.881 448.674C553.309 448.675 552.757 448.884 552.327 449.262C551.898 449.64 551.62 450.161 551.546 450.729C551.546 452.005 551.546 453.281 551.546 454.557C551.546 457.11 551.546 459.663 551.546 462.215C551.546 463.491 551.546 464.768 551.546 466.044C551.498 466.636 551.524 467.232 551.622 467.818C551.775 468.339 552.104 468.79 552.554 469.094C553.022 469.4 553.578 469.544 554.137 469.503H559.688L587.933 469.656L635.755 469.949L667.995 470.205L676.763 470.307H679.047C679.558 470.307 679.813 470.307 679.813 470.307C679.813 470.307 679.558 470.307 679.047 470.307H676.763H667.995H635.755L587.933 470.166L559.688 470.052H554.137C553.446 470.098 552.759 469.914 552.184 469.528C551.603 469.126 551.179 468.535 550.984 467.856C550.87 467.208 550.835 466.548 550.882 465.891C550.882 464.615 550.882 463.338 550.882 462.062C550.882 459.509 550.882 456.957 550.882 454.404C550.882 453.128 550.882 451.852 550.882 450.512C550.972 449.783 551.326 449.112 551.875 448.626C552.425 448.139 553.134 447.87 553.868 447.87L660.248 448.457L678.613 448.597C679.297 448.555 679.984 448.602 680.656 448.737C681.319 448.954 681.878 449.409 682.225 450.014C682.556 450.576 682.699 451.228 682.634 451.877C682.634 452.477 682.634 453.077 682.634 453.651C682.634 455.961 682.634 458.08 682.634 460.033C682.634 461.985 682.634 463.632 682.634 465.138C682.634 465.865 682.634 466.542 682.634 467.167C682.683 467.738 682.591 468.312 682.366 468.839C682.2 469.191 681.96 469.504 681.663 469.755C681.366 470.006 681.018 470.19 680.643 470.294C680.344 470.397 680.024 470.427 679.711 470.383V470.383Z" fill="#E0E0E0"/>
<path d="M620.358 399.366L560.322 399.094L560.296 404.722L620.333 404.995L620.358 399.366Z" fill="#146C94"/>
<path opacity="0.2" d="M620.358 399.366L560.322 399.094L560.296 404.722L620.333 404.995L620.358 399.366Z" fill="white"/>
<path d="M565.751 459.969C565.713 460.482 565.525 460.973 565.211 461.381C564.897 461.789 564.47 462.096 563.983 462.263C563.496 462.43 562.971 462.451 562.473 462.323C561.974 462.194 561.524 461.922 561.179 461.541C560.834 461.159 560.608 460.684 560.53 460.176C560.452 459.667 560.525 459.146 560.74 458.679C560.955 458.211 561.302 457.817 561.739 457.545C562.176 457.273 562.683 457.135 563.198 457.148C563.909 457.188 564.576 457.506 565.054 458.034C565.531 458.562 565.782 459.258 565.751 459.969V459.969Z" fill="#146C94"/>
<path d="M573.881 460.007C573.906 460.367 573.857 460.728 573.736 461.068C573.616 461.408 573.427 461.72 573.181 461.983C572.935 462.247 572.637 462.457 572.306 462.601C571.975 462.745 571.619 462.819 571.258 462.819C570.897 462.819 570.54 462.745 570.21 462.601C569.879 462.457 569.581 462.247 569.335 461.983C569.089 461.72 568.9 461.408 568.78 461.068C568.659 460.728 568.61 460.367 568.635 460.007C568.61 459.647 568.659 459.286 568.78 458.946C568.9 458.606 569.089 458.295 569.335 458.031C569.581 457.767 569.879 457.557 570.21 457.413C570.54 457.269 570.897 457.195 571.258 457.195C571.619 457.195 571.975 457.269 572.306 457.413C572.637 457.557 572.935 457.767 573.181 458.031C573.427 458.295 573.616 458.606 573.736 458.946C573.857 459.286 573.906 459.647 573.881 460.007V460.007Z" fill="#146C94"/>
<path d="M582.023 460.045C581.986 460.559 581.798 461.05 581.484 461.457C581.17 461.865 580.743 462.172 580.256 462.339C579.769 462.506 579.244 462.527 578.746 462.399C578.247 462.271 577.797 461.999 577.452 461.617C577.107 461.235 576.881 460.761 576.803 460.252C576.725 459.743 576.797 459.222 577.012 458.755C577.227 458.287 577.575 457.893 578.012 457.621C578.449 457.349 578.956 457.211 579.471 457.225C580.181 457.267 580.846 457.587 581.323 458.114C581.8 458.641 582.051 459.335 582.023 460.045Z" fill="#146C94"/>
<path d="M590.154 460.084C590.116 460.597 589.928 461.088 589.614 461.496C589.3 461.904 588.873 462.21 588.386 462.378C587.9 462.545 587.374 462.566 586.876 462.437C586.377 462.309 585.928 462.037 585.582 461.656C585.237 461.274 585.011 460.799 584.933 460.29C584.855 459.782 584.928 459.261 585.143 458.793C585.358 458.326 585.705 457.931 586.142 457.659C586.579 457.387 587.086 457.25 587.601 457.263C588.311 457.306 588.976 457.625 589.453 458.153C589.93 458.68 590.182 459.373 590.154 460.084Z" fill="#146C94"/>
<path d="M598.284 460.109C598.248 460.623 598.063 461.116 597.75 461.525C597.437 461.935 597.011 462.243 596.524 462.413C596.038 462.582 595.512 462.605 595.012 462.477C594.513 462.35 594.062 462.079 593.715 461.698C593.369 461.317 593.142 460.842 593.063 460.333C592.984 459.823 593.056 459.302 593.271 458.834C593.486 458.365 593.833 457.97 594.271 457.698C594.708 457.425 595.216 457.287 595.731 457.301C596.439 457.344 597.102 457.662 597.578 458.186C598.055 458.711 598.308 459.401 598.284 460.109Z" fill="#146C94"/>
<path d="M606.426 460.148C606.391 460.659 606.208 461.149 605.898 461.558C605.588 461.966 605.166 462.275 604.682 462.447C604.199 462.618 603.677 462.645 603.179 462.523C602.681 462.401 602.229 462.136 601.879 461.761C601.53 461.386 601.298 460.917 601.211 460.412C601.125 459.907 601.188 459.387 601.393 458.917C601.599 458.447 601.937 458.048 602.366 457.767C602.795 457.487 603.297 457.339 603.81 457.34C604.529 457.366 605.208 457.677 605.698 458.203C606.188 458.73 606.45 459.429 606.426 460.148V460.148Z" fill="#146C94"/>
<path d="M614.556 460.186C614.581 460.546 614.532 460.907 614.412 461.247C614.291 461.587 614.102 461.898 613.856 462.162C613.61 462.426 613.312 462.636 612.982 462.78C612.651 462.924 612.294 462.998 611.933 462.998C611.573 462.998 611.216 462.924 610.885 462.78C610.554 462.636 610.257 462.426 610.011 462.162C609.765 461.898 609.576 461.587 609.455 461.247C609.335 460.907 609.285 460.546 609.311 460.186C609.285 459.826 609.335 459.465 609.455 459.125C609.576 458.785 609.765 458.473 610.011 458.209C610.257 457.946 610.554 457.735 610.885 457.592C611.216 457.448 611.573 457.374 611.933 457.374C612.294 457.374 612.651 457.448 612.982 457.592C613.312 457.735 613.61 457.946 613.856 458.209C614.102 458.473 614.291 458.785 614.412 459.125C614.532 459.465 614.581 459.826 614.556 460.186Z" fill="#146C94"/>
<path d="M622.686 460.224C622.651 460.736 622.468 461.226 622.158 461.634C621.848 462.043 621.426 462.352 620.943 462.523C620.459 462.695 619.937 462.721 619.439 462.6C618.941 462.478 618.489 462.213 618.14 461.838C617.79 461.463 617.558 460.994 617.472 460.489C617.385 459.983 617.449 459.464 617.654 458.994C617.859 458.524 618.197 458.124 618.626 457.844C619.055 457.564 619.557 457.415 620.07 457.417C620.789 457.443 621.468 457.754 621.958 458.28C622.449 458.806 622.71 459.505 622.686 460.224V460.224Z" fill="#146C94"/>
<path d="M630.816 460.262C630.781 460.777 630.595 461.269 630.283 461.679C629.97 462.088 629.544 462.397 629.057 462.566C628.57 462.735 628.044 462.758 627.545 462.631C627.045 462.504 626.594 462.233 626.248 461.851C625.901 461.47 625.674 460.995 625.595 460.486C625.516 459.977 625.588 459.455 625.803 458.987C626.018 458.519 626.366 458.124 626.803 457.851C627.241 457.579 627.748 457.441 628.264 457.455C628.971 457.497 629.634 457.815 630.111 458.339C630.588 458.864 630.841 459.554 630.816 460.262V460.262Z" fill="#146C94"/>
<g opacity="0.2">
<path d="M565.751 459.969C565.713 460.482 565.525 460.973 565.211 461.381C564.897 461.789 564.47 462.096 563.983 462.263C563.496 462.43 562.971 462.451 562.473 462.323C561.974 462.194 561.524 461.922 561.179 461.541C560.834 461.159 560.608 460.684 560.53 460.176C560.452 459.667 560.525 459.146 560.74 458.679C560.955 458.211 561.302 457.817 561.739 457.545C562.176 457.273 562.683 457.135 563.198 457.148C563.909 457.188 564.576 457.506 565.054 458.034C565.531 458.562 565.782 459.258 565.751 459.969V459.969Z" fill="white"/>
<path d="M573.881 460.008C573.906 460.367 573.857 460.728 573.736 461.068C573.616 461.408 573.427 461.72 573.181 461.984C572.935 462.248 572.637 462.458 572.306 462.602C571.975 462.746 571.619 462.82 571.258 462.82C570.897 462.82 570.54 462.746 570.21 462.602C569.879 462.458 569.581 462.248 569.335 461.984C569.089 461.72 568.9 461.408 568.78 461.068C568.659 460.728 568.61 460.367 568.635 460.008C568.61 459.648 568.659 459.287 568.78 458.947C568.9 458.607 569.089 458.295 569.335 458.031C569.581 457.768 569.879 457.557 570.21 457.413C570.54 457.27 570.897 457.195 571.258 457.195C571.619 457.195 571.975 457.27 572.306 457.413C572.637 457.557 572.935 457.768 573.181 458.031C573.427 458.295 573.616 458.607 573.736 458.947C573.857 459.287 573.906 459.648 573.881 460.008V460.008Z" fill="white"/>
<path d="M582.023 460.046C581.986 460.559 581.798 461.05 581.484 461.458C581.17 461.866 580.743 462.172 580.256 462.34C579.769 462.507 579.244 462.528 578.746 462.399C578.247 462.271 577.797 461.999 577.452 461.617C577.107 461.236 576.881 460.761 576.803 460.252C576.725 459.744 576.797 459.223 577.012 458.755C577.227 458.288 577.575 457.893 578.012 457.621C578.449 457.349 578.956 457.211 579.471 457.225C580.181 457.268 580.846 457.587 581.323 458.114C581.8 458.642 582.051 459.335 582.023 460.046Z" fill="white"/>
<path d="M590.154 460.084C590.116 460.597 589.928 461.088 589.614 461.496C589.3 461.904 588.873 462.21 588.386 462.378C587.9 462.545 587.374 462.566 586.876 462.437C586.377 462.309 585.928 462.037 585.582 461.656C585.237 461.274 585.011 460.799 584.933 460.29C584.855 459.782 584.928 459.261 585.143 458.793C585.358 458.326 585.705 457.931 586.142 457.659C586.579 457.387 587.086 457.25 587.601 457.263C588.311 457.306 588.976 457.625 589.453 458.153C589.93 458.68 590.182 459.373 590.154 460.084Z" fill="white"/>
<path d="M598.284 460.11C598.248 460.624 598.063 461.116 597.75 461.526C597.437 461.935 597.011 462.244 596.524 462.413C596.038 462.583 595.512 462.605 595.012 462.478C594.513 462.351 594.062 462.08 593.715 461.699C593.369 461.317 593.142 460.842 593.063 460.333C592.984 459.824 593.056 459.303 593.271 458.834C593.486 458.366 593.833 457.971 594.271 457.698C594.708 457.426 595.216 457.288 595.731 457.302C596.439 457.345 597.102 457.662 597.578 458.187C598.055 458.711 598.308 459.401 598.284 460.11Z" fill="white"/>
<path d="M606.426 460.148C606.391 460.659 606.208 461.149 605.898 461.558C605.588 461.966 605.166 462.275 604.682 462.447C604.199 462.618 603.677 462.645 603.179 462.523C602.681 462.401 602.229 462.136 601.879 461.761C601.53 461.386 601.298 460.917 601.211 460.412C601.125 459.907 601.188 459.387 601.393 458.917C601.599 458.447 601.937 458.048 602.366 457.767C602.795 457.487 603.297 457.339 603.81 457.34C604.529 457.366 605.208 457.677 605.698 458.203C606.188 458.73 606.45 459.429 606.426 460.148V460.148Z" fill="white"/>
<path d="M614.556 460.186C614.581 460.546 614.532 460.907 614.412 461.247C614.291 461.587 614.102 461.898 613.856 462.162C613.61 462.426 613.312 462.636 612.982 462.78C612.651 462.924 612.294 462.998 611.933 462.998C611.573 462.998 611.216 462.924 610.885 462.78C610.554 462.636 610.257 462.426 610.011 462.162C609.765 461.898 609.576 461.587 609.455 461.247C609.335 460.907 609.285 460.546 609.311 460.186C609.285 459.826 609.335 459.465 609.455 459.125C609.576 458.785 609.765 458.473 610.011 458.209C610.257 457.946 610.554 457.735 610.885 457.592C611.216 457.448 611.573 457.374 611.933 457.374C612.294 457.374 612.651 457.448 612.982 457.592C613.312 457.735 613.61 457.946 613.856 458.209C614.102 458.473 614.291 458.785 614.412 459.125C614.532 459.465 614.581 459.826 614.556 460.186Z" fill="white"/>
<path d="M622.686 460.224C622.651 460.736 622.468 461.226 622.158 461.634C621.848 462.043 621.426 462.352 620.943 462.523C620.459 462.695 619.937 462.721 619.439 462.6C618.941 462.478 618.489 462.213 618.14 461.838C617.79 461.463 617.558 460.994 617.472 460.489C617.385 459.983 617.449 459.464 617.654 458.994C617.859 458.524 618.197 458.124 618.626 457.844C619.055 457.564 619.557 457.415 620.07 457.417C620.789 457.443 621.468 457.754 621.958 458.28C622.449 458.806 622.71 459.505 622.686 460.224V460.224Z" fill="white"/>
<path d="M630.816 460.263C630.781 460.777 630.595 461.269 630.283 461.679C629.97 462.089 629.544 462.397 629.057 462.566C628.57 462.736 628.044 462.758 627.545 462.631C627.045 462.504 626.594 462.233 626.248 461.852C625.901 461.47 625.674 460.996 625.595 460.486C625.516 459.977 625.588 459.456 625.803 458.988C626.018 458.519 626.366 458.124 626.803 457.852C627.241 457.579 627.748 457.441 628.264 457.455C628.971 457.498 629.634 457.815 630.111 458.34C630.588 458.864 630.841 459.554 630.816 460.263V460.263Z" fill="white"/>
</g>
<path d="M619.266 276.016C620.152 275.626 620.904 274.983 621.429 274.169C621.953 273.354 622.226 272.403 622.214 271.435C622.247 270.805 622.151 270.175 621.933 269.583C621.715 268.992 621.379 268.451 620.945 267.993C620.51 267.536 619.988 267.172 619.408 266.923C618.829 266.674 618.205 266.545 617.575 266.545C616.944 266.545 616.32 266.674 615.741 266.923C615.161 267.172 614.639 267.536 614.205 267.993C613.771 268.451 613.434 268.992 613.216 269.583C612.998 270.175 612.902 270.805 612.935 271.435C612.916 272.413 613.187 273.375 613.714 274.2C614.241 275.024 615 275.674 615.896 276.067C608.749 277.14 609.068 284.899 609.068 284.899L625.966 284.976C625.966 284.976 626.362 277.076 619.266 276.016Z" fill="#146C94"/>
<path opacity="0.1" d="M619.266 276.016C620.152 275.626 620.904 274.983 621.429 274.169C621.953 273.354 622.226 272.403 622.214 271.435C622.247 270.805 622.151 270.175 621.933 269.583C621.715 268.992 621.379 268.451 620.945 267.993C620.51 267.536 619.988 267.172 619.408 266.923C618.829 266.674 618.205 266.545 617.575 266.545C616.944 266.545 616.32 266.674 615.741 266.923C615.161 267.172 614.639 267.536 614.205 267.993C613.771 268.451 613.434 268.992 613.216 269.583C612.998 270.175 612.902 270.805 612.935 271.435C612.916 272.413 613.187 273.375 613.714 274.2C614.241 275.024 615 275.674 615.896 276.067C608.749 277.14 609.068 284.899 609.068 284.899L625.966 284.976C625.966 284.976 626.362 277.076 619.266 276.016Z" fill="black"/>
<path d="M646.725 289.981L586.497 289.708L586.465 296.906L646.692 297.18L646.725 289.981Z" fill="#146C94"/>
<path opacity="0.2" d="M646.725 289.981L586.497 289.708L586.465 296.906L646.692 297.18L646.725 289.981Z" fill="white"/>
<path d="M425.308 327.285H424.709L422.973 327.413C422.033 327.469 421.099 327.593 420.178 327.783C419.581 327.867 418.989 327.982 418.404 328.128L416.425 328.676C413.058 329.709 409.881 331.283 407.019 333.335C403.237 336.08 400.079 339.594 397.753 343.647C396.386 345.984 395.298 348.472 394.511 351.063C393.685 353.878 393.209 356.784 393.095 359.716C393.019 361.256 393.044 362.799 393.171 364.336C393.171 365.115 393.388 365.893 393.49 366.684C393.576 367.482 393.726 368.272 393.937 369.046C395.085 374.167 397.413 378.949 400.737 383.011C404.061 387.073 408.288 390.302 413.081 392.44C416.551 393.937 420.269 394.772 424.045 394.903C427.945 395.118 431.849 394.558 435.532 393.257L436.655 392.836H436.808L436.935 392.912L453.03 401.081L452.557 401.489C450.834 396.154 449.175 390.985 447.567 386.02V385.829L447.707 385.688C451.612 381.756 454.51 376.94 456.156 371.649C457.648 366.812 458.083 361.711 457.433 356.691C456.854 352.23 455.42 347.922 453.208 344.005C451.302 340.64 448.842 337.619 445.933 335.071C443.533 333.053 440.877 331.362 438.033 330.042C435.881 329.114 433.64 328.408 431.345 327.936L428.793 327.515L426.942 327.375L425.819 327.298H425.436C425.563 327.284 425.692 327.284 425.819 327.298H426.955L428.805 327.375L431.358 327.745C433.682 328.182 435.953 328.863 438.135 329.774C441.028 331.079 443.732 332.766 446.176 334.79C449.138 337.327 451.65 340.348 453.604 343.724C455.878 347.683 457.357 352.049 457.956 356.576C458.66 361.674 458.255 366.863 456.769 371.79C455.112 377.191 452.169 382.109 448.192 386.122L448.269 385.791C449.877 390.755 451.549 395.924 453.285 401.246L453.527 402.025L452.8 401.655L436.706 393.499H436.986L435.838 393.921C432.084 395.241 428.108 395.814 424.134 395.605C420.277 395.458 416.481 394.593 412.941 393.053C406.189 390.161 400.572 385.135 396.949 378.745C395.282 375.794 394.065 372.611 393.337 369.301C393.138 368.507 392.989 367.701 392.891 366.889C392.788 366.085 392.623 365.293 392.584 364.502C392.239 359.961 392.719 355.394 394.001 351.024C394.807 348.398 395.925 345.879 397.332 343.52C399.714 339.43 402.937 335.893 406.789 333.143C409.699 331.086 412.929 329.525 416.349 328.523L418.353 328.013C418.942 327.876 419.539 327.769 420.139 327.694C421.071 327.521 422.013 327.419 422.96 327.387L424.709 327.324C424.907 327.297 425.108 327.284 425.308 327.285Z" fill="#146C94"/>
<path d="M432.583 357.048H430.222L425.117 349.876V345.166C425.117 345.166 421.467 344.936 421.901 351.101C422.334 357.265 421.901 355.696 421.901 355.696C421.901 355.696 414.153 355.696 413.515 356.398C412.877 357.099 412.839 364.579 412.749 368.752C412.701 369.758 412.989 370.752 413.57 371.575C414.15 372.398 414.989 373.004 415.953 373.296C416.223 373.371 416.502 373.409 416.783 373.411C418.723 373.411 428.588 371.841 428.588 371.841H432.66L432.583 357.048Z" fill="#146C94"/>
<path d="M439.335 355.785L437.88 371.917H433.847V356.117L439.335 355.785Z" fill="#146C94"/>
<path d="M487.438 684.214V673.302L467.872 673.161L467.706 689.664L468.919 689.753C474.317 690.098 496.385 690.608 500.009 689.485C504.042 688.234 487.438 684.214 487.438 684.214Z" fill="#146C94"/>
<path d="M500.469 688.464C500.469 688.642 493.143 688.795 484.119 688.795C475.096 688.795 467.77 688.642 467.77 688.464C467.77 688.285 475.096 688.132 484.119 688.132C493.143 688.132 500.469 688.285 500.469 688.464Z" fill="#263238"/>
<path d="M487.782 686.447C487.616 686.358 487.782 685.783 488.178 685.171C488.573 684.558 489.11 684.303 489.237 684.43C489.365 684.558 489.097 685.043 488.714 685.566C488.331 686.09 487.948 686.536 487.782 686.447Z" fill="#263238"/>
<path d="M489.033 687.162C488.854 687.162 488.943 686.447 489.326 685.771C489.709 685.094 490.22 684.686 490.36 684.788C490.5 684.89 490.271 685.464 489.913 686.064C489.556 686.664 489.199 687.226 489.033 687.162Z" fill="#263238"/>
<path d="M473.667 688.413C473.59 688.413 473.297 688.183 472.876 687.698C472.361 687.075 471.789 686.502 471.165 685.988C470.552 685.498 469.822 685.177 469.047 685.056C468.447 684.98 468.064 685.056 468.026 684.98C467.987 684.903 468.357 684.635 469.059 684.584C469.986 684.564 470.89 684.872 471.612 685.452C472.289 686.004 472.86 686.674 473.297 687.43C473.59 687.992 473.743 688.362 473.667 688.413Z" fill="#263238"/>
<path d="M487.846 684.393C487.935 684.546 487.603 684.929 487.042 685.133C486.48 685.337 485.983 685.26 485.957 685.133C485.931 685.005 486.327 684.737 486.812 684.559C487.297 684.38 487.744 684.239 487.846 684.393Z" fill="#263238"/>
<path d="M487.54 683.333C487.54 683.524 487.029 683.678 486.366 683.69C485.702 683.703 485.179 683.55 485.192 683.371C485.204 683.193 485.728 683.027 486.366 683.014C487.004 683.001 487.514 683.154 487.54 683.333Z" fill="#263238"/>
<path d="M535.618 684.214V673.302L516.052 673.161L515.886 689.498L517.099 689.587C522.498 689.932 544.578 690.608 548.189 689.485C552.223 688.234 535.618 684.214 535.618 684.214Z" fill="#146C94"/>
<path d="M548.649 688.49C548.649 688.668 541.335 688.821 532.299 688.821C523.263 688.821 515.963 688.668 515.963 688.49C515.963 688.311 523.276 688.158 532.299 688.158C541.323 688.158 548.649 688.311 548.649 688.49Z" fill="#263238"/>
<path d="M535.963 686.447C535.809 686.358 535.963 685.783 536.358 685.171C536.754 684.558 537.29 684.303 537.417 684.43C537.545 684.558 537.277 685.043 536.894 685.566C536.511 686.09 536.128 686.536 535.963 686.447Z" fill="#263238"/>
<path d="M537.214 687.162C537.048 687.162 537.124 686.447 537.52 685.771C537.916 685.094 538.413 684.686 538.554 684.788C538.694 684.89 538.452 685.464 538.094 686.064C537.737 686.664 537.392 687.226 537.214 687.162Z" fill="#263238"/>
<path d="M521.847 688.413C521.77 688.413 521.489 688.183 521.056 687.698C520.541 687.075 519.969 686.502 519.345 685.988C518.732 685.498 518.002 685.177 517.227 685.056C516.64 684.98 516.244 685.056 516.206 684.98C516.167 684.903 516.537 684.635 517.239 684.584C518.166 684.564 519.069 684.872 519.792 685.452C520.472 686 521.044 686.671 521.477 687.43C521.77 687.992 521.923 688.362 521.847 688.413Z" fill="#263238"/>
<path d="M536.026 684.393C536.116 684.546 535.784 684.929 535.222 685.133C534.661 685.337 534.163 685.26 534.137 685.133C534.112 685.005 534.508 684.737 534.993 684.559C535.478 684.38 535.924 684.239 536.026 684.393Z" fill="#263238"/>
<path d="M535.745 683.333C535.745 683.524 535.235 683.678 534.571 683.69C533.907 683.703 533.397 683.55 533.41 683.371C533.422 683.193 533.933 683.027 534.571 683.014C535.209 683.001 535.745 683.154 535.745 683.333Z" fill="#263238"/>
<path d="M607.703 360.162C607.193 359.639 605.929 359.894 605.929 359.894C606.056 359.16 606.056 358.409 605.929 357.674C605.7 356.959 604.091 357.099 604.091 357.099C604.017 356.497 604.017 355.889 604.091 355.287C604.104 355.154 604.076 355.019 604.009 354.903C603.943 354.786 603.843 354.693 603.721 354.636C602.96 354.326 602.143 354.178 601.322 354.202C600.339 353.5 604.321 347.923 605.802 346.136C607.282 344.349 607.014 342.958 605.7 342.958C604.793 342.958 600.148 348.318 598.718 350.118C597.289 351.918 593.498 356.921 593.371 352.926C593.243 348.931 591.635 345.919 590.627 345.408C589.618 344.898 588.546 346.098 589.095 347.208C589.577 348.47 589.878 349.793 589.988 351.139C590.127 352.211 590.08 353.299 589.848 354.355C589.425 356.32 588.849 358.249 588.125 360.124H588.023C588.023 360.124 560.174 386.837 558.158 388.739C556.358 390.449 520.162 386.709 512.9 385.944C510.432 385.582 507.941 385.412 505.447 385.433C502.294 385.573 501.733 386.02 498.593 386.058C490.664 386.146 482.753 386.842 474.93 388.139C471.388 388.741 468.08 390.305 465.365 392.659C462.651 395.013 460.635 398.067 459.538 401.489C452.225 424.335 435.659 478.411 432.736 508.787C430.528 512.792 428.534 516.912 426.763 521.129C424.708 526.719 425.206 526.91 425.895 527.038C427.759 527.382 429.877 517.351 430.669 519.776C431.46 522.201 426.648 531.735 428.601 532.015C431.154 532.373 433.183 521.805 433.425 520.963C433.668 520.12 434.931 520.388 434.702 521.18C434.332 522.303 430.745 534.211 433.247 534.594C434.625 534.798 434.778 532.283 434.778 532.283C434.778 532.283 437.331 520.886 438.492 521.116C439.654 521.346 438.416 528.072 437.829 530.318C437.242 532.564 438.058 533.7 439.258 533.151C440.075 532.768 442.028 525.94 442.564 523.719C443.1 521.499 444.44 515.347 446.239 518.908C448.039 522.469 450.77 524.536 451.893 524.587C452.146 524.558 452.385 524.454 452.578 524.288C452.772 524.122 452.911 523.902 452.978 523.656C453.045 523.411 453.038 523.151 452.956 522.909C452.874 522.668 452.722 522.457 452.519 522.303C451.553 521.359 450.724 520.285 450.056 519.112C449.46 518.198 449.028 517.188 448.779 516.126C448.265 514.008 447.966 511.845 447.886 509.667L447.682 508.391C450.54 494.237 458.773 452.694 470.655 426.16L475.53 436.191L477.649 443.619L464.656 475.693L520.073 474.965L511.803 443.134L521.847 409.951C532.708 410.193 560.595 410.602 565.241 408.496C571.086 405.943 601.322 367.756 601.322 367.756C603.293 366.225 605.18 364.589 606.976 362.855C606.976 362.855 608.814 361.311 607.703 360.162Z" fill="#FFBE9D"/>
<path d="M462.218 451.992C463.826 446.504 472.084 419.37 472.084 419.37C472.084 419.37 476.143 441.488 475.07 444.156C474.084 446.439 472.919 448.641 471.586 450.741C462.218 464.998 463.443 472.132 463.443 472.132L520.047 470.409C520.175 462.496 515.491 444.092 514.521 441.156C513.551 438.221 516.78 428.61 516.78 428.61C516.78 428.61 523.161 422.114 522.931 418.77C522.81 415.766 522.439 412.778 521.821 409.836L556.281 411.112L555.196 387.756L505.701 382.804C503.978 387.667 488.395 385.28 488.395 385.28C471.573 385.842 470.527 388.93 463.533 394.367C456.539 399.804 444.963 446.466 444.963 446.466L462.218 451.992Z" fill="#146C94"/>
<path d="M495.683 446.466C494.702 446.641 493.703 446.693 492.709 446.619C490.858 446.619 488.318 446.491 485.523 446.211C482.728 445.93 480.201 445.534 478.402 445.177C477.409 445.049 476.436 444.8 475.504 444.437C476.502 444.437 477.498 444.531 478.478 444.717C480.29 444.947 482.805 445.266 485.587 445.547C488.369 445.828 490.896 446.019 492.722 446.147C493.716 446.159 494.708 446.266 495.683 446.466V446.466Z" fill="#263238"/>
<path d="M499.563 441.654C498.581 442.135 497.544 442.49 496.474 442.713C491.382 444.051 486.129 444.674 480.865 444.564C479.776 444.599 478.686 444.496 477.623 444.257C478.698 444.122 479.782 444.066 480.865 444.092C482.869 444.028 485.625 443.887 488.663 443.53C491.701 443.173 494.406 442.662 496.321 442.254C497.384 441.97 498.468 441.769 499.563 441.654V441.654Z" fill="#263238"/>
<path d="M518.605 420.187C518.579 421.16 518.447 422.127 518.209 423.071C517.878 424.845 517.367 427.27 516.716 429.925C516.065 432.58 515.44 435.03 514.878 436.689C514.653 437.639 514.318 438.56 513.883 439.434C513.954 438.463 514.134 437.505 514.419 436.575C514.904 434.584 515.453 432.286 516.065 429.772C516.678 427.258 517.265 424.96 517.75 422.969C517.923 422.011 518.21 421.077 518.605 420.187V420.187Z" fill="#263238"/>
<path d="M462.818 448.737C459.865 448.281 456.951 447.603 454.101 446.708C451.188 446.027 448.33 445.131 445.55 444.028C448.501 444.491 451.414 445.169 454.267 446.057C457.18 446.736 460.039 447.632 462.818 448.737V448.737Z" fill="#263238"/>
<path d="M522.433 409.555C521.952 409.638 521.46 409.638 520.978 409.555C519.645 409.419 518.336 409.105 517.086 408.624C514.998 407.839 513.097 406.626 511.506 405.064C509.914 403.501 508.667 401.623 507.845 399.549C506.936 397.268 506.548 394.814 506.709 392.364C506.766 390.343 507.371 388.376 508.458 386.671C509.223 385.523 510.365 384.679 511.687 384.285C512.04 384.187 512.405 384.14 512.772 384.144C513.027 384.144 513.155 384.144 513.155 384.144C513.155 384.144 512.619 384.144 511.763 384.489C510.551 384.937 509.522 385.777 508.841 386.876C507.105 389.607 506.62 394.597 508.471 399.256C509.332 401.452 510.68 403.425 512.414 405.024C513.835 406.334 515.472 407.387 517.252 408.139C518.922 408.799 520.659 409.274 522.433 409.555V409.555Z" fill="#263238"/>
<path d="M552.184 410.653C551.865 406.739 551.763 402.811 551.878 398.886C551.778 394.964 551.897 391.039 552.235 387.131C552.555 391.04 552.657 394.965 552.542 398.886C552.649 402.812 552.529 406.741 552.184 410.653V410.653Z" fill="#263238"/>
<path d="M505.37 384.233C505.51 381.387 505.804 378.171 505.804 378.171C505.804 378.171 512.849 377.393 513.27 370.118C513.691 362.843 513.27 346.06 513.27 346.06L500.507 339.525L486.34 350.667L488.523 387.041L501.515 387.871C502.508 387.898 503.472 387.531 504.194 386.849C504.917 386.167 505.34 385.227 505.37 384.233V384.233Z" fill="#FFBE9D"/>
<path d="M506.634 364.362C506.634 364.362 506.634 364.502 506.519 364.668C506.424 364.788 506.301 364.884 506.161 364.946C506.021 365.008 505.868 365.035 505.715 365.025C504.898 365.025 504.106 364.081 503.826 362.983C503.692 362.451 503.692 361.894 503.826 361.362C503.852 361.13 503.936 360.908 504.069 360.716C504.203 360.525 504.383 360.369 504.591 360.265C504.763 360.194 504.956 360.194 505.127 360.265C505.255 360.328 505.358 360.431 505.421 360.558C505.51 360.775 505.421 360.916 505.421 360.903C505.421 360.89 505.421 360.775 505.293 360.648C505.227 360.556 505.129 360.493 505.018 360.469C504.907 360.445 504.792 360.464 504.694 360.52C504.537 360.615 504.407 360.747 504.315 360.906C504.224 361.064 504.174 361.243 504.17 361.426C504.063 361.901 504.063 362.394 504.17 362.868C504.426 363.864 505.115 364.668 505.727 364.744C505.847 364.761 505.969 364.752 506.086 364.719C506.202 364.686 506.31 364.63 506.404 364.553C506.557 364.451 506.608 364.349 506.634 364.362Z" fill="#EB996E"/>
<path d="M517.648 342.129C516.665 338.785 513.104 337.126 509.862 336.207C504.923 334.803 499.588 334.19 494.764 335.964C489.939 337.738 484.145 340.852 484.145 346.175C481.299 345.945 479.665 348.434 478.542 351.522C477.824 353.404 477.394 355.383 477.266 357.393V357.393C476.908 364.362 474.956 373.985 470.438 379.09C467.885 381.936 464.35 383.902 462.895 387.45C461.618 390.526 462.282 394.176 461.095 397.29C460.036 400.034 457.7 401.987 455.99 404.374C454.248 407.081 453.222 410.187 453.01 413.4C452.798 416.612 453.406 419.826 454.777 422.739C456.159 425.578 458.103 428.105 460.493 430.168C462.882 432.23 465.667 433.785 468.676 434.737C474.638 436.55 480.995 436.612 486.991 434.915C491.491 433.839 495.689 431.758 499.269 428.827C502.932 425.836 505.449 421.669 506.391 417.034C507.297 411.827 505.842 406.53 504.757 401.349C501.362 384.974 502.332 384.119 506.62 368.918C506.723 368.65 506.774 368.369 506.85 368.101C506.927 367.833 506.965 367.706 507.016 367.501C507.138 366.901 507.202 366.289 507.208 365.676C506.581 365.909 505.901 365.958 505.248 365.818C504.595 365.678 503.995 365.354 503.519 364.885C503.042 364.385 502.71 363.764 502.557 363.09C502.404 362.416 502.437 361.713 502.651 361.056C502.952 360.337 503.401 359.69 503.968 359.156C504.535 358.621 505.209 358.212 505.944 357.955C507.361 357.368 508.879 357.061 510.271 356.41C513.219 355.006 515.261 352.097 516.652 349.046C517.796 346.932 518.149 344.48 517.648 342.129V342.129Z" fill="#263238"/>
<path d="M507.144 364.706C507.414 365.104 507.636 365.533 507.808 365.982C508.19 366.786 508.701 367.922 509.263 369.237L509.365 369.479H509.097L507.82 369.594C506.94 369.594 506.199 369.76 505.332 369.747C505.256 369.73 505.186 369.695 505.128 369.643C505.07 369.592 505.026 369.527 505 369.454C504.962 369.338 504.962 369.213 505 369.097C505.029 368.924 505.068 368.754 505.115 368.586L505.344 367.68C505.46 367.075 505.639 366.485 505.88 365.919C505.857 366.535 505.767 367.147 505.612 367.744L505.434 368.65C505.37 368.956 505.255 369.428 505.434 369.39C506.072 369.39 506.978 369.25 507.82 369.199L509.097 369.084L508.931 369.365C508.382 368.088 507.922 366.889 507.654 366.059C507.419 365.635 507.247 365.179 507.144 364.706V364.706Z" fill="#146C94"/>
<path d="M463.443 472.132L520.047 470.409L544.68 566.565L540.149 676.862H510.22L513.883 568.914L491.994 501.972L495.364 681.138L465.115 681.585L461.937 513.178C461.797 508.494 460.265 497.939 460.84 493.293L463.443 472.132Z" fill="#263238"/>
<path d="M499.525 503.337C498.598 503.396 497.668 503.34 496.755 503.172C495.045 502.967 492.709 502.61 490.144 502.099C487.578 501.589 485.281 501.002 483.622 500.53C482.735 500.335 481.877 500.026 481.069 499.611C481.069 499.419 485.23 500.415 490.335 501.449C495.44 502.482 499.55 503.146 499.525 503.337Z" fill="#455A64"/>
<path d="M539.843 670.813C539.843 670.991 533.066 671.145 524.706 671.145C516.346 671.145 509.556 670.991 509.556 670.813C509.556 670.634 516.333 670.481 524.706 670.481C533.078 670.481 539.843 670.621 539.843 670.813Z" fill="#455A64"/>
<path d="M495.096 676.479C495.096 676.671 488.51 676.811 480.393 676.811C472.276 676.811 465.703 676.671 465.703 676.479C465.703 676.288 472.288 676.147 480.393 676.147C488.497 676.147 495.096 676.301 495.096 676.479Z" fill="#455A64"/>
<path d="M491.19 676.02C491.011 676.02 490.22 636.876 489.416 588.594C488.612 540.312 488.14 501.142 488.306 501.142C488.471 501.142 489.288 540.273 490.08 588.581C490.871 636.889 491.381 676.02 491.19 676.02Z" fill="#455A64"/>
<path d="M535.822 670.813C535.808 670.638 535.808 670.463 535.822 670.289V668.758C535.822 667.379 535.924 665.401 536.001 662.887C536.179 657.782 536.435 650.366 536.754 641.279C537.443 623.003 538.413 597.808 539.472 569.998C539.472 569.73 539.472 569.475 539.472 569.245V569.334C532.772 542.532 526.709 518.206 522.306 500.606L517.201 479.79C516.614 477.352 516.167 475.45 515.848 474.123C515.695 473.497 515.593 473.012 515.503 472.642C515.454 472.476 515.424 472.305 515.414 472.132C515.48 472.293 515.532 472.459 515.567 472.63C515.669 472.987 515.797 473.472 515.976 474.085C516.32 475.361 516.818 477.301 517.456 479.726C518.732 484.652 520.532 491.748 522.778 500.491C527.22 518.078 533.346 542.341 540.136 569.181V569.271C540.136 569.5 540.136 569.768 540.136 570.024C539 597.834 537.966 623.015 537.213 641.292C536.817 650.392 536.486 657.756 536.256 662.887C536.128 665.439 536.026 667.379 535.962 668.758C535.962 669.409 535.886 669.919 535.873 670.289C535.875 670.465 535.858 670.64 535.822 670.813V670.813Z" fill="#455A64"/>
<path d="M526.058 566.999C523.909 567.706 521.694 568.197 519.447 568.467C516.69 568.939 514.342 569.271 513.283 569.322V569.067C513.627 569.169 513.806 569.233 513.806 569.284C513.806 569.335 513.589 569.284 513.232 569.284H512.466L513.232 569.054C514.227 568.76 516.575 568.275 519.332 567.778C521.543 567.298 523.796 567.037 526.058 566.999Z" fill="#455A64"/>
<path d="M525.535 570.662C523.544 570.753 521.549 570.663 519.575 570.394C517.581 570.353 515.595 570.135 513.64 569.743C517.629 569.417 521.644 569.728 525.535 570.662V570.662Z" fill="#455A64"/>
<path opacity="0.2" d="M463.201 474.161C463.871 475.022 464.716 475.732 465.679 476.244C466.642 476.757 467.703 477.06 468.791 477.135C471.071 477.405 473.377 477.362 475.645 477.008C490.258 475.387 505.74 473.893 520.047 470.409C501.528 471.443 481.962 471.098 463.443 472.132L463.252 473.715" fill="black"/>
<g opacity="0.2">
<path d="M482.281 500.261L492.722 540.771L491.994 501.971L482.281 500.261Z" fill="black"/>
</g>
</svg>
